<svg width="98" height="28" viewBox="0 0 98 28" xmlns="http://www.w3.org/2000/svg">
  <g id="Page-1" fill="none" fill-rule="evenodd" stroke-linecap="round" stroke-linejoin="round">
    <g id="Group" transform="translate(1 1)" stroke="#000">
      <g id="another-basketball" transform="translate(35)">
        <path d="M16.43 25.5c8.34-2.86 11.18-13.66 5.88-20.7-5.3-7.04-16.35-6.19-20.59 1.56C-4 16.83 5.45 28.58 16.42 25.5" id="color" stroke-width="1.21" fill="#FFE7DE"/>
        <g id="lines" transform="translate(0 1)" fill="#000" fill-rule="nonzero">
          <path d="M6.8 23.85l.99.43c-3.85-1.83-3.86-6.7-3.3-10.32.3-1.96.63-3.95.36-5.94-.15-1.15-1.84-4.57-3.2-2.39 3.5-2.58 2.61 7.02 2.41 8.24-.5 3.05-.6 8.33 2.74 9.98" id="Shape" stroke-width=".83"/>
          <path d="M16.14 24.6c-3.67 1.65-6.94-8.36-7.71-10.73C7.6 11.36 4.4 1.2 8.29.27c-3.41 1-.24 10.84.46 13.1.68 2.16 1.53 4.28 2.58 6.3.78 1.5 2.65 5.4 4.81 4.94" id="Shape" stroke-width=".49"/>
          <path d="M24.26 8.7C20.6-1.3-2.57 6.16.36 16.34c-1.94-5.79 5-10.36 9.7-11.81C14.32 3.2 22.99 2.8 24.26 8.7" id="Shape"/>
          <path d="M22.76 19.5v.2c.95-1.53-1.36-4.18-2.38-5.18-1.78-1.74-3.96-2.93-6.02-4.3-2.24-1.49-4.67-3.3-4.02-6.36.6-2.84 3.84-4.27 6.46-3.46-2.21-.87-5.07-.16-6.3 2-1.4 2.47-.44 5.1 1.65 6.77 3.58 2.86 10.03 5.05 10.6 10.33" id="Shape" stroke-width=".83"/>
        </g>
      </g>
      <g id="another-basketball">
        <path d="M16.43 25.5c8.34-2.86 11.18-13.66 5.88-20.7-5.3-7.04-16.35-6.19-20.59 1.56C-4 16.83 5.45 28.58 16.42 25.5" id="color" stroke-width="1.21" fill="#F96830"/>
        <g id="lines" transform="translate(0 1)" fill="#000" fill-rule="nonzero">
          <path d="M6.8 23.85l.99.43c-3.85-1.83-3.86-6.7-3.3-10.32.3-1.96.63-3.95.36-5.94-.15-1.15-1.84-4.57-3.2-2.39 3.5-2.58 2.61 7.02 2.41 8.24-.5 3.05-.6 8.33 2.74 9.98" id="Shape" stroke-width=".83"/>
          <path d="M16.14 24.6c-3.67 1.65-6.94-8.36-7.71-10.73C7.6 11.36 4.4 1.2 8.29.27c-3.41 1-.24 10.84.46 13.1.68 2.16 1.53 4.28 2.58 6.3.78 1.5 2.65 5.4 4.81 4.94" id="Shape" stroke-width=".49"/>
          <path d="M24.26 8.7C20.6-1.3-2.57 6.16.36 16.34c-1.94-5.79 5-10.36 9.7-11.81C14.32 3.2 22.99 2.8 24.26 8.7" id="Shape"/>
          <path d="M22.76 19.5v.2c.95-1.53-1.36-4.18-2.38-5.18-1.78-1.74-3.96-2.93-6.02-4.3-2.24-1.49-4.67-3.3-4.02-6.36.6-2.84 3.84-4.27 6.46-3.46-2.21-.87-5.07-.16-6.3 2-1.4 2.47-.44 5.1 1.65 6.77 3.58 2.86 10.03 5.05 10.6 10.33" id="Shape" stroke-width=".83"/>
        </g>
      </g>
      <g id="another-basketball" transform="translate(71)">
        <path d="M16.43 25.5c8.34-2.86 11.18-13.66 5.88-20.7-5.3-7.04-16.35-6.19-20.59 1.56C-4 16.83 5.45 28.58 16.42 25.5" id="color" stroke-width="1.21" fill="#F96830"/>
        <g id="lines" transform="translate(0 1)" fill="#000" fill-rule="nonzero">
          <path d="M6.8 23.85l.99.43c-3.85-1.83-3.86-6.7-3.3-10.32.3-1.96.63-3.95.36-5.94-.15-1.15-1.84-4.57-3.2-2.39 3.5-2.58 2.61 7.02 2.41 8.24-.5 3.05-.6 8.33 2.74 9.98" id="Shape" stroke-width=".83"/>
          <path d="M16.14 24.6c-3.67 1.65-6.94-8.36-7.71-10.73C7.6 11.36 4.4 1.2 8.29.27c-3.41 1-.24 10.84.46 13.1.68 2.16 1.53 4.28 2.58 6.3.78 1.5 2.65 5.4 4.81 4.94" id="Shape" stroke-width=".49"/>
          <path d="M24.26 8.7C20.6-1.3-2.57 6.16.36 16.34c-1.94-5.79 5-10.36 9.7-11.81C14.32 3.2 22.99 2.8 24.26 8.7" id="Shape"/>
          <path d="M22.76 19.5v.2c.95-1.53-1.36-4.18-2.38-5.18-1.78-1.74-3.96-2.93-6.02-4.3-2.24-1.49-4.67-3.3-4.02-6.36.6-2.84 3.84-4.27 6.46-3.46-2.21-.87-5.07-.16-6.3 2-1.4 2.47-.44 5.1 1.65 6.77 3.58 2.86 10.03 5.05 10.6 10.33" id="Shape" stroke-width=".83"/>
        </g>
      </g>
    </g>
  </g>
</svg>
