<svg xmlns="http://www.w3.org/2000/svg" xmlns:xlink="http://www.w3.org/1999/xlink" width="513" height="125.4">
  <defs>
    <ellipse id="path-1" cx="21.36" cy="19.87" rx="21.36" ry="19.87"></ellipse>
    <ellipse id="path-3" cx="21.36" cy="19.87" rx="21.36" ry="19.87"></ellipse>
  </defs>
  <g id="Page-1" fill="none" fill-rule="evenodd">
    <g id="logo-(1)">
      <g id="a-link" transform="translate(6 8)" fill="#F5A623" fill-rule="nonzero">
        <ellipse id="a" cx="21.36" cy="19.87" rx="21.36" ry="19.87"></ellipse>
      </g>
      <g id="Group" transform="matrix(1 0 0 -1 6 48)">
        <g id="Clipped">
          <g id="Shape-Clipped">
            <mask id="mask-2" fill="#fff">
              <use xlink:href="#path-1"></use>
            </mask>
            <path d="M21.4 15.03c8.6 0 14.16-4.66 14.16-10.4S30-5.77 21.41-5.77c-8.6 0-14.52 4.66-14.52 10.4 0 5.75 5.93 10.4 14.52 10.4zM0 19.18h43.35H0z" id="Shape" stroke="#F49322" stroke-width="2" mask="url(#mask-2)"></path>
          </g>
        </g>
      </g>
      <g id="Group" transform="translate(6 8)">
        <g id="Clipped">
          <g id="Shape-Clipped">
            <mask id="mask-4" fill="#fff">
              <use xlink:href="#path-3"></use>
            </mask>
            <path d="M21.87 15.03c8.58 0 14.14-4.66 14.14-10.4s-5.56-10.4-14.15-10.4c-8.6 0-14.52 4.66-14.52 10.4 0 5.75 5.93 10.4 14.52 10.4zM21.4-.07l.1 39.82-.1-39.81z" id="Shape" stroke="#F49322" stroke-width="2" mask="url(#mask-4)"></path>
          </g>
        </g>
      </g>
      <g id="Group" transform="translate(15 16)" fill-rule="nonzero">
        <ellipse id="Oval" fill="#F58323" cx="12.46" cy="11.96" rx="12.46" ry="11.96"></ellipse>
        <path d="M14.13 17.26c4.85-2.21 5.34-5.96 5.39-6.37.05-.57-1.04-1.47-.42-1.57.22-.02 2.31 1.21 2.4 1.67.09.5-1.16-.18-1.26.2a9.27 9.27 0 0 1-6.08 6.7c-4.12 1.38-7.8-.35-9.37-1.22-.54-.3-1.1.55-1.3.19-.22-.42.45-1.93 1-2.1.55-.2-.03.81.45 1.2 1.6 1.25 5.97 2.76 9.2 1.3zM12.6 7.9c-.45.13-.23-1.66 1.37-1.79 1.11-.1 1.89.6 1.91 1 .03.4-.5-.36-1.48-.26-.98.1-1.15.87-1.8 1.05zm-4.29.93c.51.9.61 1.8.24 1.99-.38.2-1.1-.39-1.6-1.3-.5-.9-.6-1.8-.23-1.98.38-.2 1.1.38 1.6 1.3v-.01z" id="Shape" fill="#000"></path>
      </g>
      
    </g>
  </g>
</svg>